# xmcd
#
# Track frame offsets: 
#        150
#        14430
#        28697
#        42940
#        63202
#        78985
#        93660
#        105845
#        120447
#        130085
#        149165
#        161580
#
# Disc length: 2406 seconds
#
# Revision: 0
# Processed by: cddbd v1.5.2PL0 Copyright (c) Steve Scherf et al.
# Submitted via: ExactAudioCopy v0.99pb5
#
DISCID=9709640c
DTITLE=Various Artist - Pinecastle - Bluegrass Unlimited Sampler
DYEAR=2009
DGENRE=Bluegrass
TTITLE0=When The Roses Bloom In Dixieland - The Osborne Brothers
TTITLE1=Cattle In The Cane - Bluegrass '95
TTITLE2=Pathway Of Time - David Parmley and Continental Divide
TTITLE3=Once Upon A Road - Nothin' Fancy
TTITLE4=Clinch Mountain Mystery - Larry Stephenson Band
TTITLE5=Carolina Smokey Mountain Home - Special Consensus
TTITLE6=North To Alaska - Jack Cooke
TTITLE7=Dixie Flyer - Grasstowne
TTITLE8=The Bugs In The Basement - The Dixie Bee-Liners
TTITLE9=Echoes Of Love - Beth Stevens
TTITLE10=Take Me In The Lifeboat - The Churchmen
TTITLE11=The Hangman - Ernie Thacker
EXTD=
EXTT0=
EXTT1=
EXTT2=
EXTT3=
EXTT4=
EXTT5=
EXTT6=
EXTT7=
EXTT8=
EXTT9=
EXTT10=
EXTT11=
PLAYORDER=
